<svg width="12" height="13" viewBox="0 0 12 13" fill="none" xmlns="http://www.w3.org/2000/svg">
<path d="M7.2726 2.00708L7.34834 2.06319L11.358 5.43819C11.6903 5.71789 11.7124 6.2141 11.4244 6.52267L11.358 6.58577L7.34834 9.96077C7.03144 10.2275 6.55831 10.1868 6.29157 9.86995C6.04535 9.57743 6.06106 9.15179 6.31418 8.87824L6.38239 8.81319L8.78325 6.79121L1.125 6.79138C0.710786 6.79138 0.375 6.45559 0.375 6.04138C0.375 5.65675 0.66453 5.33975 1.03753 5.29642L1.125 5.29138L8.8545 5.29121L6.38239 3.21077C6.08987 2.96455 6.03273 2.54247 6.23546 2.22975L6.29157 2.15401C6.53779 1.86149 6.95987 1.80434 7.2726 2.00708Z" fill="#017DE8"/>
</svg>
