<svg width="40" height="33" viewBox="0 0 40 33" fill="none" xmlns="http://www.w3.org/2000/svg">
  <path fill-rule="evenodd" clip-rule="evenodd"
    d="M28.8063 0.193692C30.8944 -0.362879 33.039 0.875389 33.6009 2.96199L37.4016 17.0757C37.952 19.1196 36.7804 21.2214 34.7739 21.84L34.6262 21.8825L9.61708 28.5487C7.52905 29.1053 5.38443 27.867 4.82253 25.7804L1.02186 11.6668C0.47145 9.62283 1.64305 7.52102 3.64948 6.9024L3.79724 6.85995L28.8063 0.193692Z"
    fill="#CFD2D5" />
  <path fill-rule="evenodd" clip-rule="evenodd"
    d="M28.8063 0.193692C30.8944 -0.362879 33.039 0.875389 33.6009 2.96199L37.4016 17.0757C37.952 19.1196 36.7804 21.2214 34.7739 21.84L34.6262 21.8825L9.61708 28.5487C7.52905 29.1053 5.38443 27.867 4.82253 25.7804L1.02186 11.6668C0.47145 9.62283 1.64305 7.52102 3.64948 6.9024L3.79724 6.85995L28.8063 0.193692Z"
    fill="url(#paint0_linear_406_1813)" fill-opacity="0.4" style="mix-blend-mode:soft-light" />
  <path fill-rule="evenodd" clip-rule="evenodd"
    d="M10.1698 10.387H36.0802C38.245 10.387 40 12.1419 40 14.3068V28.9672C40 31.132 38.245 32.887 36.0802 32.887H10.1698C8.00495 32.887 6.25 31.132 6.25 28.9672V14.3068C6.25 12.1419 8.00495 10.387 10.1698 10.387Z"
    fill="#E7E8EA" />
  <path fill-rule="evenodd" clip-rule="evenodd"
    d="M10.1698 10.387H36.0802C38.245 10.387 40 12.1419 40 14.3068V28.9672C40 31.132 38.245 32.887 36.0802 32.887H10.1698C8.00495 32.887 6.25 31.132 6.25 28.9672V14.3068C6.25 12.1419 8.00495 10.387 10.1698 10.387Z"
    fill="url(#paint1_linear_406_1813)" fill-opacity="0.4" style="mix-blend-mode:soft-light" />
  <path fill-rule="evenodd" clip-rule="evenodd"
    d="M12.0242 24.9962H15.7742C16.9824 24.9962 17.9617 25.9756 17.9617 27.1837C17.9617 28.3918 16.9824 29.3712 15.7742 29.3712H12.0242C10.8161 29.3712 9.83673 28.3918 9.83673 27.1837C9.83673 25.9756 10.8161 24.9962 12.0242 24.9962Z"
    fill="#017DE8" />
  <path fill-rule="evenodd" clip-rule="evenodd"
    d="M12.0242 24.9962H15.7742C16.9824 24.9962 17.9617 25.9756 17.9617 27.1837C17.9617 28.3918 16.9824 29.3712 15.7742 29.3712H12.0242C10.8161 29.3712 9.83673 28.3918 9.83673 27.1837C9.83673 25.9756 10.8161 24.9962 12.0242 24.9962Z"
    fill="url(#paint2_linear_406_1813)" fill-opacity="0.4" style="mix-blend-mode:soft-light" />
  <defs>
    <linearGradient id="paint0_linear_406_1813" x1="0.886047" y1="0.0604858" x2="28.6541" y2="35.619"
      gradientUnits="userSpaceOnUse">
      <stop stop-color="white" />
      <stop offset="1" />
    </linearGradient>
    <linearGradient id="paint1_linear_406_1813" x1="6.25" y1="10.387" x2="27.0192" y2="41.5408"
      gradientUnits="userSpaceOnUse">
      <stop stop-color="white" />
      <stop offset="1" />
    </linearGradient>
    <linearGradient id="paint2_linear_406_1813" x1="9.83673" y1="24.9962" x2="13.4893" y2="31.7795"
      gradientUnits="userSpaceOnUse">
      <stop stop-color="white" />
      <stop offset="1" />
    </linearGradient>
  </defs>
</svg>