<svg width="40" height="41" viewBox="0 0 40 41" fill="none" xmlns="http://www.w3.org/2000/svg">
  <path fill-rule="evenodd" clip-rule="evenodd"
    d="M20 24.8956L32.9825 37.8781C33.4706 38.3662 33.4706 39.1577 32.9825 39.6458C32.52 40.1083 31.7853 40.1327 31.2942 39.7189L31.2147 39.6458L20 28.4313L8.78531 39.6458C8.32285 40.1083 7.58817 40.1327 7.09705 39.7189L7.01754 39.6458C6.55508 39.1834 6.53074 38.4487 6.94452 37.9576L7.01754 37.8781L20 24.8956ZM20 0.0119629C20.659 0.0119629 21.1989 0.521887 21.2466 1.16867L21.25 1.26196V6.88663C21.25 7.57698 20.6904 8.13663 20 8.13663C19.341 8.13663 18.8011 7.62671 18.7534 6.97992L18.75 6.88663V1.26196C18.75 0.571607 19.3096 0.0119629 20 0.0119629Z"
    fill="#CFD2D5" />
  <path fill-rule="evenodd" clip-rule="evenodd"
    d="M20 24.8956L32.9825 37.8781C33.4706 38.3662 33.4706 39.1577 32.9825 39.6458C32.52 40.1083 31.7853 40.1327 31.2942 39.7189L31.2147 39.6458L20 28.4313L8.78531 39.6458C8.32285 40.1083 7.58817 40.1327 7.09705 39.7189L7.01754 39.6458C6.55508 39.1834 6.53074 38.4487 6.94452 37.9576L7.01754 37.8781L20 24.8956ZM20 0.0119629C20.659 0.0119629 21.1989 0.521887 21.2466 1.16867L21.25 1.26196V6.88663C21.25 7.57698 20.6904 8.13663 20 8.13663C19.341 8.13663 18.8011 7.62671 18.7534 6.97992L18.75 6.88663V1.26196C18.75 0.571607 19.3096 0.0119629 20 0.0119629Z"
    fill="url(#paint0_linear_406_1824)" fill-opacity="0.4" style="mix-blend-mode:soft-light" />
  <path fill-rule="evenodd" clip-rule="evenodd"
    d="M3.125 4.38696H36.875C38.6009 4.38696 40 5.78607 40 7.51196V30.012C40 31.7379 38.6009 33.137 36.875 33.137H3.125C1.39911 33.137 0 31.7379 0 30.012V7.51196C0 5.78607 1.39911 4.38696 3.125 4.38696Z"
    fill="#CFD2D5" />
  <path fill-rule="evenodd" clip-rule="evenodd"
    d="M3.125 4.38696H36.875C38.6009 4.38696 40 5.78607 40 7.51196V30.012C40 31.7379 38.6009 33.137 36.875 33.137H3.125C1.39911 33.137 0 31.7379 0 30.012V7.51196C0 5.78607 1.39911 4.38696 3.125 4.38696Z"
    fill="url(#paint1_linear_406_1824)" fill-opacity="0.4" style="mix-blend-mode:soft-light" />
  <path fill-rule="evenodd" clip-rule="evenodd"
    d="M5 6.88696H35C36.3807 6.88696 37.5 8.00625 37.5 9.38696V28.137C37.5 29.5177 36.3807 30.637 35 30.637H5C3.61929 30.637 2.5 29.5177 2.5 28.137V9.38696C2.5 8.00625 3.61929 6.88696 5 6.88696Z"
    fill="#E7E8EA" />
  <path fill-rule="evenodd" clip-rule="evenodd"
    d="M5 6.88696H35C36.3807 6.88696 37.5 8.00625 37.5 9.38696V28.137C37.5 29.5177 36.3807 30.637 35 30.637H5C3.61929 30.637 2.5 29.5177 2.5 28.137V9.38696C2.5 8.00625 3.61929 6.88696 5 6.88696Z"
    fill="url(#paint2_linear_406_1824)" fill-opacity="0.4" style="mix-blend-mode:soft-light" />
  <path fill-rule="evenodd" clip-rule="evenodd"
    d="M32.8795 10.3649C33.3749 9.88415 34.1662 9.89601 34.647 10.3914C35.1025 10.8608 35.1158 11.5957 34.6947 12.0806L34.6205 12.159L24.0555 22.412C23.6092 22.8452 22.9177 22.8811 22.4306 22.5117L22.3468 22.4423L16.92 17.5376L7.1257 27.154C6.65899 27.6121 5.92412 27.6297 5.43684 27.2114L5.35801 27.1377C4.89983 26.671 4.88226 25.9361 5.30055 25.4488L5.3743 25.37L16.0095 14.9291C16.4553 14.4915 17.1501 14.4533 17.6393 14.824L17.7234 14.8937L23.1544 19.8026L32.8795 10.3649Z"
    fill="#017DE8" />
  <path fill-rule="evenodd" clip-rule="evenodd"
    d="M32.8795 10.3649C33.3749 9.88415 34.1662 9.89601 34.647 10.3914C35.1025 10.8608 35.1158 11.5957 34.6947 12.0806L34.6205 12.159L24.0555 22.412C23.6092 22.8452 22.9177 22.8811 22.4306 22.5117L22.3468 22.4423L16.92 17.5376L7.1257 27.154C6.65899 27.6121 5.92412 27.6297 5.43684 27.2114L5.35801 27.1377C4.89983 26.671 4.88226 25.9361 5.30055 25.4488L5.3743 25.37L16.0095 14.9291C16.4553 14.4915 17.1501 14.4533 17.6393 14.824L17.7234 14.8937L23.1544 19.8026L32.8795 10.3649Z"
    fill="url(#paint3_linear_406_1824)" fill-opacity="0.4" style="mix-blend-mode:soft-light" />
  <defs>
    <linearGradient id="paint0_linear_406_1824" x1="6.65143" y1="0.0119629" x2="43.5907" y2="24.6663"
      gradientUnits="userSpaceOnUse">
      <stop stop-color="white" />
      <stop offset="1" />
    </linearGradient>
    <linearGradient id="paint1_linear_406_1824" x1="0" y1="4.38696" x2="27.2505" y2="42.3007"
      gradientUnits="userSpaceOnUse">
      <stop stop-color="white" />
      <stop offset="1" />
    </linearGradient>
    <linearGradient id="paint2_linear_406_1824" x1="2.5" y1="6.88696" x2="24.5699" y2="39.411"
      gradientUnits="userSpaceOnUse">
      <stop stop-color="white" />
      <stop offset="1" />
    </linearGradient>
    <linearGradient id="paint3_linear_406_1824" x1="5" y1="10.012" x2="20.2332" y2="36.126"
      gradientUnits="userSpaceOnUse">
      <stop stop-color="white" />
      <stop offset="1" />
    </linearGradient>
  </defs>
</svg>